REM DIRINDEX 1\2,1\3,1\4
REM DIRNAME folder01,folder02,folder03,folder04
TITLE ""
FILE "175 175_TOEFL_3900.mp3" MP3
  TRACK 01 AUDIO
    TITLE "2:cjc151_7632"
    INDEX 01 00:00:00
  TRACK 02 AUDIO
    TITLE "0:"
    INDEX 01 00:01:44
  TRACK 03 AUDIO
    TITLE "3:cjc151_7633"
    INDEX 01 00:03:21
  TRACK 04 AUDIO
    TITLE "0:"
    INDEX 01 00:07:47
  TRACK 05 AUDIO
    TITLE "2:cjc151_7634"
    INDEX 01 00:09:26
  TRACK 06 AUDIO
    TITLE "0:"
    INDEX 01 00:10:41
  TRACK 07 AUDIO
    TITLE "3:cjc151_7635"
    INDEX 01 00:12:11
  TRACK 08 AUDIO
    TITLE "0:"
    INDEX 01 00:16:36
  TRACK 09 AUDIO
    TITLE "2:cjc151_7636"
    INDEX 01 00:18:13
  TRACK 10 AUDIO
    TITLE "0:"
    INDEX 01 00:19:62
  TRACK 11 AUDIO
    TITLE "3:cjc151_7637"
    INDEX 01 00:21:43
  TRACK 12 AUDIO
    TITLE "0:"
    INDEX 01 00:25:70
  TRACK 13 AUDIO
    TITLE "2:cjc151_7638"
    INDEX 01 00:27:47
  TRACK 14 AUDIO
    TITLE "0:"
    INDEX 01 00:29:05
  TRACK 15 AUDIO
    TITLE "3:cjc151_7639"
    INDEX 01 00:30:57
  TRACK 16 AUDIO
    TITLE "0:"
    INDEX 01 00:34:36
  TRACK 17 AUDIO
    TITLE "2:cjc151_7640"
    INDEX 01 00:36:15
  TRACK 18 AUDIO
    TITLE "0:"
    INDEX 01 00:37:28
  TRACK 19 AUDIO
    TITLE "3:cjc151_7641"
    INDEX 01 00:39:07
  TRACK 20 AUDIO
    TITLE "0:"
    INDEX 01 00:42:51
  TRACK 21 AUDIO
    TITLE "2:cjc151_7642"
    INDEX 01 00:44:30
  TRACK 22 AUDIO
    TITLE "0:"
    INDEX 01 00:45:71
  TRACK 23 AUDIO
    TITLE "3:cjc151_7643"
    INDEX 01 00:47:50
  TRACK 24 AUDIO
    TITLE "0:"
    INDEX 01 00:51:63
  TRACK 25 AUDIO
    TITLE "2:cjc151_7644"
    INDEX 01 00:53:43
  TRACK 26 AUDIO
    TITLE "0:"
    INDEX 01 00:54:56
  TRACK 27 AUDIO
    TITLE "3:cjc151_7645"
    INDEX 01 00:56:43
  TRACK 28 AUDIO
    TITLE "0:"
    INDEX 01 01:01:05
  TRACK 29 AUDIO
    TITLE "2:cjc151_7646"
    INDEX 01 01:02:61
  TRACK 30 AUDIO
    TITLE "0:"
    INDEX 01 01:04:09
  TRACK 31 AUDIO
    TITLE "3:cjc151_7647"
    INDEX 01 01:05:64
  TRACK 32 AUDIO
    TITLE "0:"
    INDEX 01 01:09:69
  TRACK 33 AUDIO
    TITLE "2:cjc151_7648"
    INDEX 01 01:11:51
  TRACK 34 AUDIO
    TITLE "0:"
    INDEX 01 01:12:60
  TRACK 35 AUDIO
    TITLE "3:cjc151_7649"
    INDEX 01 01:14:37
  TRACK 36 AUDIO
    TITLE "0:"
    INDEX 01 01:18:33
  TRACK 37 AUDIO
    TITLE "2:cjc151_7650"
    INDEX 01 01:20:12
  TRACK 38 AUDIO
    TITLE "0:"
    INDEX 01 01:21:39
  TRACK 39 AUDIO
    TITLE "3:cjc151_7651"
    INDEX 01 01:23:18
  TRACK 40 AUDIO
    TITLE "0:"
    INDEX 01 01:27:57
  TRACK 41 AUDIO
    TITLE "2:cjc151_7652"
    INDEX 01 01:29:31
  TRACK 42 AUDIO
    TITLE "0:"
    INDEX 01 01:30:60
  TRACK 43 AUDIO
    TITLE "3:cjc151_7653"
    INDEX 01 01:32:39
  TRACK 44 AUDIO
    TITLE "0:"
    INDEX 01 01:36:50
  TRACK 45 AUDIO
    TITLE "2:cjc151_7654"
    INDEX 01 01:38:28
  TRACK 46 AUDIO
    TITLE "0:"
    INDEX 01 01:39:53
  TRACK 47 AUDIO
    TITLE "3:cjc151_7655"
    INDEX 01 01:41:34
  TRACK 48 AUDIO
    TITLE "0:"
    INDEX 01 01:45:47
  TRACK 49 AUDIO
    TITLE "2:cjc151_7656"
    INDEX 01 01:47:25
  TRACK 50 AUDIO
    TITLE "0:"
    INDEX 01 01:48:58
  TRACK 51 AUDIO
    TITLE "3:cjc151_7657"
    INDEX 01 01:50:33
  TRACK 52 AUDIO
    TITLE "0:"
    INDEX 01 01:54:11
  TRACK 53 AUDIO
    TITLE "2:cjc151_7658"
    INDEX 01 01:55:65
  TRACK 54 AUDIO
    TITLE "0:"
    INDEX 01 01:57:11
  TRACK 55 AUDIO
    TITLE "3:cjc151_7659"
    INDEX 01 01:58:66
  TRACK 56 AUDIO
    TITLE "0:"
    INDEX 01 02:02:73
  TRACK 57 AUDIO
    TITLE "2:cjc151_7660"
    INDEX 01 02:04:53
  TRACK 58 AUDIO
    TITLE "0:"
    INDEX 01 02:06:01
  TRACK 59 AUDIO
    TITLE "3:cjc151_7661"
    INDEX 01 02:07:55
  TRACK 60 AUDIO
    TITLE "0:"
    INDEX 01 02:11:63
  TRACK 61 AUDIO
    TITLE "2:cjc151_7662"
    INDEX 01 02:13:40
  TRACK 62 AUDIO
    TITLE "0:"
    INDEX 01 02:14:61
  TRACK 63 AUDIO
    TITLE "3:cjc151_7663"
    INDEX 01 02:16:40
  TRACK 64 AUDIO
    TITLE "0:"
    INDEX 01 02:21:00
  TRACK 65 AUDIO
    TITLE "2:cjc151_7664"
    INDEX 01 02:22:62
  TRACK 66 AUDIO
    TITLE "0:"
    INDEX 01 02:24:00
  TRACK 67 AUDIO
    TITLE "3:cjc151_7665"
    INDEX 01 02:25:55
  TRACK 68 AUDIO
    TITLE "0:"
    INDEX 01 02:29:37
  TRACK 69 AUDIO
    TITLE "2:cjc151_7666"
    INDEX 01 02:31:16
  TRACK 70 AUDIO
    TITLE "0:"
    INDEX 01 02:32:45
  TRACK 71 AUDIO
    TITLE "3:cjc151_7667"
    INDEX 01 02:34:24
  TRACK 72 AUDIO
    TITLE "0:"
    INDEX 01 02:37:44
  TRACK 73 AUDIO
    TITLE "2:cjc151_7668"
    INDEX 01 02:39:26
  TRACK 74 AUDIO
    TITLE "0:"
    INDEX 01 02:40:48
  TRACK 75 AUDIO
    TITLE "3:cjc151_7669"
    INDEX 01 02:42:26
  TRACK 76 AUDIO
    TITLE "0:"
    INDEX 01 02:46:51
  TRACK 77 AUDIO
    TITLE "2:cjc151_7670"
    INDEX 01 02:48:36
  TRACK 78 AUDIO
    TITLE "0:"
    INDEX 01 02:49:65
  TRACK 79 AUDIO
    TITLE "3:cjc151_7671"
    INDEX 01 02:51:42
  TRACK 80 AUDIO
    TITLE "0:"
    INDEX 01 02:55:05
  TRACK 81 AUDIO
    TITLE "2:cjc151_7672"
    INDEX 01 02:56:59
  TRACK 82 AUDIO
    TITLE "0:"
    INDEX 01 02:58:07
  TRACK 83 AUDIO
    TITLE "3:cjc151_7673"
    INDEX 01 02:59:62
  TRACK 84 AUDIO
    TITLE "0:"
    INDEX 01 03:04:10
  TRACK 85 AUDIO
    TITLE "2:cjc151_7674"
    INDEX 01 03:05:62
  TRACK 86 AUDIO
    TITLE "0:"
    INDEX 01 03:07:45
  TRACK 87 AUDIO
    TITLE "3:cjc151_7675"
    INDEX 01 03:09:25
  TRACK 88 AUDIO
    TITLE "0:"
    INDEX 01 03:12:70
